# xmcd
#
# Track frame offsets:
#	150
#	18354
#	29889
#	49631
#	65078
#	83090
#	97951
#	111335
#	128806
#	146129
#	159365
#	182538
#	196663
#	214253
#	234098
#	267102
#
# Disc length: 4126 seconds
#
# Revision: 1
# Processed by: cddbd v1.5.2PL0 Copyright (c) Steve Scherf et al.
# Submitted via: audiograbber 1.83.01
#
DISCID=d8101c10
DTITLE=Various Artist - N 456
DYEAR=1900
DGENRE=Country
TTITLE0=Faith Hill - Breathe
TTITLE1=Joe Cocker - You Are So Beautiful
TTITLE2=John Michael Montgomery - I Swear
TTITLE3=Lifehouse - You and Me
TTITLE4=Lonestar - Amazed
TTITLE5=Martina McBride - Valentine
TTITLE6=Percy Sledge - When A Man Loves A Woman
TTITLE7=The Righteous Brothers - Unchained Melody
TTITLE8=Rod Stewart - The Way You Look Tonight
TTITLE9=Roy Orbison - Crying
TTITLE10=Shania Twain/ Btyan White - From This Moment On
TTITLE11=Stevie Wonder - You Are The Sunshine Of My Life
TTITLE12=Tim McGraw/ Faith Hill - It's Your Love
TTITLE13=Toni Braxton - Breathe Again
TTITLE14=Vanessa Williams and Brian McKnight - Love Is
TTITLE15=none - none
EXTD=
EXTT0=
EXTT1=
EXTT2=
EXTT3=
EXTT4=
EXTT5=
EXTT6=
EXTT7=
EXTT8=
EXTT9=
EXTT10=
EXTT11=
EXTT12=
EXTT13=
EXTT14=
EXTT15=
PLAYORDER=
